<?xml version="1.0" standalone="no"?>
<!DOCTYPE svg PUBLIC "-//W3C//DTD SVG 1.1//EN" "http://www.w3.org/Graphics/SVG/1.1/DTD/svg11.dtd">
<svg t="1512824514406" class="icon" style="" viewBox="0 0 1024 1024" version="1.1"
    xmlns="http://www.w3.org/2000/svg" p-id="2867"
    xmlns:xlink="http://www.w3.org/1999/xlink" width="200" height="200">
    <defs>
        <style type="text/css"></style>
    </defs>
    <path d="M453.024 498.816c0.16 58.912 27.04 101.952 43.776 102.08 16.864-0.128 43.776-43.168 43.776-102.08-0.192-56.416-22.528-92.992-43.776-92.992-21.28 0.032-43.776 36.768-43.776 92.992z" fill="#2889da" p-id="2868"></path>
    <path d="M770.08 55.68H236.288a185.952 185.952 0 0 0-185.76 185.728v533.792a185.984 185.984 0 0 0 185.76 185.824h533.792a185.984 185.984 0 0 0 185.76-185.824V241.408a185.952 185.952 0 0 0-185.76-185.728zM243.712 520.256a23.264 23.264 0 0 1-25.312-21.44 215.264 215.264 0 0 1-0.8-22.496c-0.64-67.52 16.704-292.128 238.048-321.056 15.296-1.888 29.856-2.816 43.904-2.816 224.928 1.728 274.976 223.36 275.104 224.608v0.16a23.552 23.552 0 0 1-17.696 28.128 23.456 23.456 0 0 1-28.096-17.664v-0.16c-0.672-0.16-43.776-189.92-229.44-188.192-12.032 0-24.672 0.64-38.144 2.336-180.704 20.64-196 208.832-196.8 274.496 0 12.192 0.64 18.72 0.64 18.72a23.36 23.36 0 0 1-21.408 25.376z m172.096 342.464a23.424 23.424 0 0 1-30.304-13.568c-0.32-1.28-69.536-181.504-69.856-343.904-2.016-115.072 40.48-235.104 178.656-248.256a23.456 23.456 0 0 1 4.672 46.592c-105.984 11.264-134.4 91.744-136.448 201.664-0.32 149.664 66.592 326.976 66.88 327.136a23.456 23.456 0 0 1-13.6 30.336z m171.584-363.904c-1.408 65.056-20.288 143.2-90.624 148.992-70.496-5.792-89.28-83.936-90.656-148.992 0.32-61.568 20.32-136 90.656-139.904 70.368 3.936 90.368 78.336 90.624 139.904z m-130.624 238.048h-0.128a23.264 23.264 0 0 1-21.248-25.312 23.36 23.36 0 0 1 25.312-21.408h0.16s2.944 0.288 9.376 0.288c31.904 0 122.528-8.256 158.496-88.608a219.68 219.68 0 0 0 20.608-92.224c0.8-105.664-79.2-186.944-79.712-187.104a23.424 23.424 0 1 1 32.992-33.312c1.408 2.016 92.704 90.976 93.472 220.416a265.888 265.888 0 0 1-24.992 111.712c-50.656 107.904-164.416 115.872-200.832 116-8.032 0.032-12.864-0.448-13.504-0.448z m290.08-24.992c-68.896 123.168-228.32 125.856-248 126.784l-2.016 0.16h-0.352a23.392 23.392 0 0 1-1.856-46.784v-0.128h2.176c2.016 0.96 158.784-3.584 208.8-102.208 30.784-56.288 36.608-144.128 36.288-188.48 0-17.696-0.672-28.16-0.672-28.16a23.36 23.36 0 0 1 21.728-24.992 23.552 23.552 0 0 1 25.024 21.888c0 0.32 0.768 12.192 0.768 31.296-0.288 47.776-4.192 139.808-41.888 210.624z" fill="#2889da" p-id="2869"></path>
</svg>
